# xmcd
#
# Track frame offsets:
#	150
#	13603
#	24720
#	42126
#	54634
#	75599
#	93485
#	106687
#	120378
#	135451
#	146523
#	161788
#	177762
#	188719
#	203243
#	220865
#	230174
#	242205
#	255490
#	271114
#	283368
#	295282
#
# Disc length: 4146 seconds
#
# Revision: 0
# Processed by: cddbd v1.5.2PL0 Copyright (c) Steve Scherf et al.
# Submitted via: audiograbber 1.83.01
#
DISCID=3c103016
DTITLE=Artists Carousel - Artists Carousel 101
DYEAR=2008
DGENRE=Country
TTITLE0=Dick Curless - 15 Gears And 14 Wheels
TTITLE1=Ken Wentworth - Six Times A Day 
TTITLE2=Nelson and The Stagecoach - Freewheelin 
TTITLE3=Aage Norheim - Still In Town 
TTITLE4=Ulla Lindstrøm - A Dream Come True
TTITLE5=Billy D Hunter - The Tumbleweed Kid 
TTITLE6=Slim Andrews - The Image Of Me 
TTITLE7=Phil Coley - Mega-flight 
TTITLE8=Sandra Lee Burdick - My House
TTITLE9=Archie Rivers - Rednecks, Whithe Socks, and Blue Ribbon Bear 
TTITLE10=Cindy Lane Adams  - Waltz Tree In The Front Yard 
TTITLE11=Dana Jordan - Fighting With My Pillow 
TTITLE12=Cindy Alden - A Tingle Indside
TTITLE13=Gary Moffett - Silver Wings 
TTITLE14=Tommy Joe Myers - I Never Knew A Clown Could Cry
TTITLE15=Larry Bisbee - Western Thump 
TTITLE16=Patti Mckinnon - Easy Loving 
TTITLE17=Janis Dawson - I Cry, When I´m Alone 
TTITLE18=Shell Dalton - The Coal Mines Calling Me 
TTITLE19=Janis Gott - Snap! The Chevy 
TTITLE20=Lee Dodge - I´m Leaving Georgia Behind
TTITLE21=Your Kelvin Tux Burke - Your Man 
EXTD=
EXTT0=
EXTT1=
EXTT2=
EXTT3=
EXTT4=
EXTT5=
EXTT6=
EXTT7=
EXTT8=
EXTT9=
EXTT10=
EXTT11=
EXTT12=
EXTT13=
EXTT14=
EXTT15=
EXTT16=
EXTT17=
EXTT18=
EXTT19=
EXTT20=
EXTT21=
PLAYORDER=
